<?xml version="1.0" encoding="utf-8"?>
<!-- Generator: Adobe Illustrator 20.1.0, SVG Export Plug-In . SVG Version: 6.00 Build 0)  -->
<svg version="1.1" id="Layer_1" xmlns="http://www.w3.org/2000/svg" xmlns:xlink="http://www.w3.org/1999/xlink" x="0px" y="0px"
   viewBox="0 0 755.3 410.4" enable-background="new 0 0 755.3 410.4" xml:space="preserve">
<g>
  <path fill-rule="evenodd" clip-rule="evenodd" fill="#32393F" d="M720.8,389.7c-15.5,0-25.8-14.5-28-50l-0.4,0.1v-8.5
    c-0.1-2.2-0.1-4.5-0.1-6.9l0.1,0V232c0-16.5-1.1-30.3-10.1-30.3c-14.3,0-44.6,45.7-47.8,87.6v77.5c0,10.1,0.5,22.8-14.9,22.8
    c-10.6,0-25.5-3.7-25.5-23.4V232c0-16.5-1.1-30.3-10.1-30.3c-14.3,0-44.6,45.7-47.8,87.6v77.5c0,10.1,0.5,22.8-14.9,22.8
    c-9.8,0-23.3-3.2-25.2-19.3c-11.2,11.6-25.6,19.4-43.9,19.4c-18.4,0-32.7-9-40.6-21.6c-10.5,12.1-25.3,21.6-45.3,21.6
    c-41.1,0-62.7-34.8-62.7-79.7c0-88.1,61.1-141.9,125.3-141.9c14.2,0,14.7,8,15,21.7c0.2,8.7-0.3,29.6-0.3,53.7v87
    c0,11.6,5.3,24.3,17.9,24.3c19.6,0,29.2-29.2,34.2-52V198c0-10.1-2.1-13.3-2.1-17c0-5.3,6.4-9,13.8-9c17.5,0,28.7,10.6,28.7,23.4
    v22.3c13.8-28.7,32.4-51,56.3-51c31.9,0,40.9,26,41.9,49.9c13.3-28.1,31.9-49.9,55.8-49.9c34.5,0,42.5,29.2,42.5,53.6v108.9
    c1.2,18.8,5.4,27,13.5,27c5.3,0,9-4.2,9,2.7C755.3,369,734,389.7,720.8,389.7z M402.1,207.4c-30.6,12.8-57.8,46.4-57.8,104.3
    c0,27.4,11.6,43.3,30,43.3c14.2,0,23.7-12.7,29.5-27.4v-81.2C403.8,239.2,405.7,204.4,402.1,207.4z M311.7,45.7
    c-9.6,0-69.6-1.1-102.5-1.6v173.6h66.4c16.5-12.2,7.4,37.2-4.8,37.2h-61.6v90.3c0,46.7-12.2,65.3-29.7,65.3
    c-13.3,0-34.5-20.7-34.5-30.8c0-6.9,3.7-2.7,9-2.7c9.6,0,13.8-11.7,13.8-38.8v-83.4h-27.6c-11.2,0-19.1-15.4-19.1-26.5
    c0-5.8,2.7-10.6,8-10.6h38.8V45.1C93.5,49.9,41.9,76.5,41.9,159.8c0,36.6,16.5,58.4,30.3,72.2c5.8-1.6,8,2.1,8,7.4
    c0,13.8-13.3,31.3-25.5,31.3c-2.7,0-5.3-0.5-8-2.7C31.3,257,0,216.1,0,159.8C0,57.9,65.8,3.2,193.3,3.2c29.2,0,109.4,1.1,120.5,1.1
    c10.6,0,13.3-4.2,14.9-4.2c3.7,0,7.4,9.6,7.4,17.5C336.1,30.3,328.2,45.7,311.7,45.7z"/>
</g>
</svg>
